<svg width="48" height="49" viewBox="0 0 48 49" fill="none" xmlns="http://www.w3.org/2000/svg">
<path d="M24 48.0693C37.2548 48.0693 48 37.3242 48 24.0693C48 10.8145 37.2548 0.0693359 24 0.0693359C10.7452 0.0693359 0 10.8145 0 24.0693C0 37.3242 10.7452 48.0693 24 48.0693Z" fill="#22D3EE"/>
<path d="M29.5114 23.9062H25.9125V35.9293L19.6 35.9297V29.9297V23.9297H17V19.644H19.6V17.0722C19.6 15.1169 20.3174 11.9297 24.8 11.9297L30 11.9448V16.0462H27.0695C26.5888 16.0462 25.9129 16.2652 25.9129 17.198V19.6848H29.9878L29.5114 23.9062Z" fill="#0F172A"/>
</svg>
