<svg width="48" height="49" viewBox="0 0 48 49" fill="none" xmlns="http://www.w3.org/2000/svg">
<path d="M24 48.0693C37.2548 48.0693 48 37.3242 48 24.0693C48 10.8145 37.2548 0.0693359 24 0.0693359C10.7452 0.0693359 0 10.8145 0 24.0693C0 37.3242 10.7452 48.0693 24 48.0693Z" fill="#22D3EE"/>
<path d="M35.1154 24.4682L31.7541 28.1104H27.5865L23.9399 30.677V27.3528H19.7308V15.3728H35.1154V24.4682ZM18.2095 12.9297L13 17.3926V33.4668H19.2514V37.9297L24.4608 33.4668H28.6284L38 25.4297V12.9297H18.2095ZM33.0071 17.9833H30.3077V23.3149H33.0071V17.9833ZM24.5385 17.9585L27.2909 17.9833V23.3149H24.5385V17.9585Z" fill="#0F172A"/>
</svg>
