<svg width="48" height="49" viewBox="0 0 48 49" fill="none" xmlns="http://www.w3.org/2000/svg">
<path d="M24 48.0693C37.2548 48.0693 48 37.3242 48 24.0693C48 10.8145 37.2548 0.0693359 24 0.0693359C10.7452 0.0693359 0 10.8145 0 24.0693C0 37.3242 10.7452 48.0693 24 48.0693Z" fill="#22D3EE"/>
<path d="M38 18.2018C38 15.8422 36.1267 13.9297 33.8156 13.9297H14.1836C11.873 13.9297 10 15.8427 10 18.2018V29.6576C10 32.0172 11.8733 33.9297 14.1836 33.9297H33.8152C36.1268 33.9297 37.9996 32.0167 37.9996 29.6576L38 18.2018Z" fill="#0F172A"/>
<path d="M20.5 28.9297V18.9297L29.25 23.9297L20.5 28.9297Z" fill="#22D3EE"/>
</svg>
