<svg width="60" height="58" viewBox="0 0 60 58" fill="none" xmlns="http://www.w3.org/2000/svg">
<path fill-rule="evenodd" clip-rule="evenodd" d="M33.3741 2.13311C31.295 0.0549682 27.9251 0.0556504 25.847 2.13465L8.50328 19.4854L8.4885 19.4811L8.43369 19.487C8.45626 19.4978 8.47842 19.5085 8.50013 19.5194C5.45769 19.8381 4.16682 20.7524 4.15221 21.9265C4.15736 22.3633 4.33655 22.8349 4.6657 23.3246L4.64987 23.3404C7.41577 27.5121 21.1179 33.0151 30.8118 29.2866C23.5466 32.9192 6.43673 33.6392 1.41129 26.5861C0.31993 27.7668 -0.136692 29.3184 0.0352652 30.8094C1.36285 38.1266 16.2053 40.1229 31.0478 29.5211L34.2597 32.733C30.263 36.8391 24.3594 60.6897 33.1315 57.0482C33.3396 56.9069 33.5162 56.7805 33.7564 56.5987L34.1474 56.2296C34.1248 56.2352 34.1024 56.2405 34.0801 56.2458L57.5737 34.0665C59.7551 32.007 59.8045 28.5527 57.6827 26.4318L33.3741 2.13311ZM30.8157 9.36112L31.6186 6.14928L32.4215 9.36112L34.8305 10.1641L32.4215 10.9671L31.6186 14.1789L30.8157 10.9671L28.4068 10.1641L30.8157 9.36112ZM20.877 19.8461L21.4123 17.7048L21.9476 19.8461L23.5536 20.3813L21.9476 20.9166L21.4123 23.0579L20.877 20.9166L19.2711 20.3813L20.877 19.8461ZM39.521 37.9073L38.9857 40.0484L37.3798 40.5839L38.9857 41.1191L39.521 43.2603L40.0563 41.1191L41.6623 40.5839L40.0563 40.0484L39.521 37.9073Z" fill="#A5F3FC"/>
<path fill-rule="evenodd" clip-rule="evenodd" d="M59.3831 4.25879C54.3605 4.25879 49.5973 6.48972 46.3819 10.3482L34.9427 24.0754L41.5482 14.167L30.5836 18.8662C29.1911 19.463 28.8417 21.2772 29.9128 22.3484L33.4413 25.8768L31.6398 28.0387L35.6032 32.002L37.765 30.2004L41.2934 33.7289C42.3646 34.8 44.1789 34.4507 44.7756 33.0583L49.4747 22.0937L39.5665 28.6992L53.2937 17.2599C57.1522 14.0446 59.3831 9.2814 59.3831 4.25879ZM48.484 15.1581C49.5784 16.2525 51.3528 16.2525 52.4473 15.1581C53.5417 14.0636 53.5417 12.2892 52.4473 11.1948C51.3528 10.1003 49.5784 10.1003 48.484 11.1948C47.3895 12.2892 47.3895 14.0636 48.484 15.1581Z" fill="#22C55E"/>
<path opacity="0.6" d="M1.2832 26.4016C3.90739 35.3924 19.8619 34.9236 30.8081 29.2881C23.4783 32.9507 6.13922 33.6502 1.2832 26.4016Z" fill="#424242"/>
<path opacity="0.6" d="M33.1307 57.0482C25.7391 60.1165 28.7676 43.6649 32.295 35.9543C29.7238 42.8078 27.5289 57.916 34.1465 56.2297L33.7556 56.5988C33.5153 56.7805 33.3387 56.9069 33.1307 57.0482Z" fill="#424242"/>
</svg>
