<svg width="89" height="86" viewBox="0 0 89 86" fill="none" xmlns="http://www.w3.org/2000/svg">
<path fill-rule="evenodd" clip-rule="evenodd" d="M49.9814 2.33351C46.8678 -0.778732 41.8209 -0.777711 38.7087 2.33582L12.7346 28.3206L12.7125 28.3141L12.6304 28.3229C12.6642 28.3391 12.6974 28.3552 12.7299 28.3714C8.17349 28.8487 6.24028 30.218 6.21839 31.9763C6.2261 32.6304 6.49447 33.3368 6.9874 34.0701L6.9637 34.0939C11.1059 40.3414 31.6264 48.5828 46.1441 42.9989C35.2636 48.4391 9.63972 49.5174 2.11357 38.9546C0.47913 40.7228 -0.204711 43.0465 0.0528136 45.2794C2.04101 56.2378 24.2692 59.2274 46.4976 43.3502L51.3077 48.1603C45.3222 54.3096 36.4809 90.0285 49.6181 84.5749C49.9297 84.3633 50.1942 84.1741 50.554 83.9018L51.1395 83.3491C51.1057 83.3574 51.0722 83.3653 51.0388 83.3733L86.223 50.1573C89.4899 47.0731 89.5639 41.8998 86.3862 38.7235L49.9814 2.33351ZM46.1499 13.1583L47.3524 8.34818L48.5549 13.1583L52.1625 14.3608L48.5549 15.5634L47.3524 20.3735L46.1499 15.5634L42.5423 14.3608L46.1499 13.1583ZM31.2656 28.8606L32.0672 25.6538L32.8689 28.8606L35.2741 29.6623L32.8689 30.4639L32.0672 33.6707L31.2656 30.4639L28.8607 29.6623L31.2656 28.8606ZM59.187 55.9093L58.3854 59.1159L55.9804 59.9178L58.3854 60.7194L59.187 63.926L59.9887 60.7194L62.3938 59.9178L59.9887 59.1159L59.187 55.9093Z" fill="#A5F3FC"/>
<path fill-rule="evenodd" clip-rule="evenodd" d="M88.9324 5.5166C81.4105 5.5166 74.2772 8.85766 69.4617 14.6362L52.3302 35.1942L62.2226 20.3553L45.8019 27.3928C43.7165 28.2865 43.1933 31.0035 44.7975 32.6079L50.0818 37.892L47.3838 41.1296L53.3194 47.0651L56.5569 44.3671L61.8412 49.6514C63.4453 51.2555 66.1625 50.7323 67.0561 48.6471L74.0935 32.2264L59.2549 42.1189L79.8129 24.9872C85.5914 20.1719 88.9324 13.0385 88.9324 5.5166ZM72.6099 21.8396C74.2488 23.4785 76.9062 23.4785 78.5454 21.8396C80.1843 20.2004 80.1843 17.5431 78.5454 15.9041C76.9062 14.265 74.2488 14.265 72.6099 15.9041C70.9707 17.5431 70.9707 20.2004 72.6099 21.8396Z" fill="#22D3EE"/>
<path opacity="0.6" d="M1.92188 38.6787C5.85188 52.1433 29.7455 51.4413 46.1387 43.0015C35.1615 48.4867 9.1943 49.5343 1.92188 38.6787Z" fill="#424242"/>
<path opacity="0.6" d="M49.6187 84.5747C38.549 89.17 43.0846 64.5318 48.3672 52.9844C44.5166 63.2483 41.2295 85.8743 51.1401 83.3489L50.5546 83.9017C50.1948 84.1739 49.9303 84.3632 49.6187 84.5747Z" fill="#424242"/>
</svg>
