<svg width="48" height="49" viewBox="0 0 48 49" fill="none" xmlns="http://www.w3.org/2000/svg">
<path d="M24 48.0693C37.2548 48.0693 48 37.3242 48 24.0693C48 10.8145 37.2548 0.0693359 24 0.0693359C10.7452 0.0693359 0 10.8145 0 24.0693C0 37.3242 10.7452 48.0693 24 48.0693Z" fill="#22D3EE"/>
<path fill-rule="evenodd" clip-rule="evenodd" d="M35.9877 29.6179C35.9359 30.615 35.7237 31.5973 35.3591 32.5265C35.0462 33.3016 34.581 34.0057 33.9912 34.597C33.4015 35.1883 32.6991 35.6546 31.926 35.9683C30.9903 36.3135 30.0052 36.5045 29.0086 36.5339H24.0766H19.1445C18.148 36.5045 17.1628 36.3135 16.2272 35.9683C15.4279 35.6705 14.7061 35.1955 14.1158 34.5786C13.5318 33.999 13.0807 33.2987 12.7941 32.5265C12.4485 31.5894 12.2632 30.6006 12.2461 29.6017V24.6571V19.7124C12.2632 18.7135 12.4485 17.7247 12.7941 16.7877C13.0911 15.9864 13.565 15.2627 14.1802 14.6709C14.761 14.0885 15.4588 13.6368 16.2272 13.3458C17.1628 13.0007 18.148 12.8097 19.1445 12.7803H24.0766H29.0086C30.0052 12.8097 30.9903 13.0007 31.926 13.3458C32.7252 13.6436 33.447 14.1187 34.0374 14.7355C34.6214 15.3152 35.0724 16.0155 35.3591 16.7877C35.7033 17.7257 35.8938 18.7134 35.9232 19.7124V24.6571C35.9232 26.4071 35.9544 27.3309 35.9769 27.999C35.9973 28.6017 36.0106 28.9963 35.9877 29.6017V29.6179ZM24.1067 20.2509C23.2352 20.2509 22.3834 20.5093 21.6588 20.9935C20.9342 21.4776 20.3695 22.1658 20.036 22.9709C19.7025 23.776 19.6153 24.6619 19.7853 25.5166C19.9553 26.3713 20.3749 27.1563 20.9911 27.7725C21.6073 28.3887 22.3924 28.8084 23.2471 28.9784C24.1018 29.1484 24.9877 29.0611 25.7928 28.7276C26.5979 28.3942 27.286 27.8294 27.7701 27.1049C28.2543 26.3803 28.5127 25.5284 28.5127 24.657C28.5127 24.0784 28.3987 23.5054 28.1773 22.9709C27.9559 22.4363 27.6313 21.9506 27.2222 21.5414C26.8131 21.1323 26.3273 20.8077 25.7928 20.5863C25.2582 20.3649 24.6853 20.2509 24.1067 20.2509ZM24.1067 31.4437C23.2162 31.4437 22.3346 31.2681 21.5122 30.9268C20.6898 30.5855 19.9428 30.0853 19.314 29.4549C18.6852 28.8244 18.187 28.0761 17.8478 27.2528C17.5087 26.4295 17.3353 25.5474 17.3377 24.657C17.3377 23.3139 17.7362 22.0011 18.4827 20.8846C19.2292 19.7682 20.2902 18.8983 21.5314 18.3852C22.7725 17.872 24.138 17.7387 25.455 18.002C26.772 18.2653 27.9812 18.9134 28.9296 19.8643C29.8781 20.8153 30.523 22.0262 30.7829 23.3439C31.0428 24.6615 30.9058 26.0267 30.3894 27.2665C29.873 28.5063 29.0004 29.565 27.882 30.3086C26.7636 31.0522 25.4497 31.4472 24.1067 31.4437ZM31.3935 19.8001C31.5272 19.8556 31.6705 19.8841 31.8151 19.8841C32.0334 19.8847 32.2469 19.8205 32.4286 19.6996C32.6104 19.5788 32.7522 19.4068 32.8361 19.2053C32.92 19.0038 32.9423 18.782 32.9 18.5679C32.8578 18.3538 32.753 18.157 32.5989 18.0025C32.4448 17.8479 32.2483 17.7426 32.0343 17.6998C31.8202 17.657 31.5983 17.6787 31.3967 17.7621C31.195 17.8455 31.0226 17.9868 30.9013 18.1683C30.7799 18.3497 30.7152 18.563 30.7152 18.7813C30.7148 18.926 30.743 19.0693 30.7981 19.2031C30.8532 19.3369 30.9342 19.4585 31.0363 19.5609C31.1385 19.6634 31.2599 19.7446 31.3935 19.8001Z" fill="#1D2029"/>
</svg>
