<svg width="48" height="49" viewBox="0 0 48 49" fill="none" xmlns="http://www.w3.org/2000/svg">
<path d="M23.9585 0.0693359C11.3288 0.0693359 0.982557 9.79083 0 22.1442L12.8857 27.4627C13.9772 26.7166 15.2971 26.282 16.7156 26.282C16.8436 26.282 16.9699 26.2854 17.0944 26.2922L22.8254 17.9996V17.8832C22.8254 12.8933 26.8923 8.83254 31.8916 8.83254C36.8909 8.83254 40.9578 12.8933 40.9578 17.8832C40.9578 22.8732 36.8909 26.9356 31.8916 26.9356C31.8224 26.9356 31.7549 26.9339 31.6857 26.9322L23.5122 32.7521C23.5174 32.8599 23.5208 32.9677 23.5208 33.0738C23.5208 36.8214 20.4676 39.8691 16.7156 39.8691C13.4219 39.8691 10.6663 37.5213 10.0435 34.4137L0.82687 30.6097C3.68113 40.6837 12.9531 48.0693 23.9585 48.0693C37.2368 48.0693 48 37.3228 48 24.0693C48 10.8141 37.2368 0.0693359 23.9585 0.0693359ZM15.066 36.4853L12.1131 35.2669C12.6355 36.3553 13.542 37.2657 14.7442 37.7653C17.3425 38.8468 20.3386 37.6165 21.4215 35.0205C21.9456 33.7645 21.9491 32.3784 21.4301 31.1189C20.9112 29.8595 19.9303 28.8772 18.6727 28.3536C17.4221 27.8351 16.0831 27.8539 14.9068 28.2971L17.9583 29.5566C19.875 30.354 20.7814 32.5512 19.9822 34.4644C19.1848 36.3775 16.9827 37.2828 15.066 36.4853ZM37.9329 17.8834C37.9329 14.5585 35.2223 11.8513 31.8923 11.8513C28.5606 11.8513 25.8499 14.5585 25.8499 17.8834C25.8499 21.2083 28.5606 23.9138 31.8923 23.9138C35.2223 23.9138 37.9329 21.2083 37.9329 17.8834ZM27.3635 17.8731C27.3635 15.3713 29.3961 13.3435 31.9009 13.3435C34.4075 13.3435 36.4401 15.3713 36.4401 17.8731C36.4401 20.375 34.4075 22.4028 31.9009 22.4028C29.3961 22.4028 27.3635 20.375 27.3635 17.8731Z" fill="#22D3EE"/>
</svg>
