<svg width="56" height="56" viewBox="0 0 56 56" fill="none" xmlns="http://www.w3.org/2000/svg">
<circle cx="28" cy="28.0024" r="28" fill="white" fill-opacity="0.2"/>
<path d="M24.0055 27.9637L32.5947 19.3744C32.8697 19.0994 33.0048 18.7728 32.9999 18.3947C32.995 18.0165 32.855 17.69 32.58 17.415C32.305 17.1399 31.9784 17.0024 31.6003 17.0024C31.2221 17.0024 30.8955 17.1399 30.6205 17.415L21.6482 26.402C21.4223 26.6279 21.2578 26.8734 21.1547 27.1386C21.0516 27.4038 21 27.6788 21 27.9637C21 28.2485 21.0516 28.5235 21.1547 28.7887C21.2578 29.0539 21.4223 29.2994 21.6482 29.5253L30.6353 38.5123C30.9103 38.7874 31.2344 38.9224 31.6076 38.9175C31.9809 38.9126 32.305 38.7726 32.58 38.4976C32.855 38.2226 32.9925 37.896 32.9925 37.5179C32.9925 37.1397 32.855 36.8132 32.58 36.5381L24.0055 27.9637Z" fill="#F8FAFC"/>
</svg>
