<svg width="56" height="56" viewBox="0 0 56 56" fill="none" xmlns="http://www.w3.org/2000/svg">
<circle cx="28" cy="28.0024" r="28" fill="white" fill-opacity="0.2"/>
<path d="M31.9945 27.9636L23.4053 19.3744C23.1303 19.0994 22.9952 18.7728 23.0001 18.3947C23.005 18.0165 23.145 17.69 23.42 17.415C23.695 17.1399 24.0216 17.0024 24.3997 17.0024C24.7779 17.0024 25.1045 17.1399 25.3795 17.415L34.3518 26.402C34.5777 26.6279 34.7422 26.8734 34.8453 27.1386C34.9484 27.4038 35 27.6788 35 27.9636C35 28.2485 34.9484 28.5235 34.8453 28.7887C34.7422 29.0539 34.5777 29.2994 34.3518 29.5253L25.3647 38.5123C25.0897 38.7873 24.7656 38.9224 24.3924 38.9175C24.0191 38.9126 23.695 38.7726 23.42 38.4976C23.145 38.2226 23.0075 37.896 23.0075 37.5179C23.0075 37.1397 23.145 36.8132 23.42 36.5381L31.9945 27.9636Z" fill="#F8FAFC"/>
</svg>
