<svg width="36" height="30" viewBox="0 0 36 30" fill="none" xmlns="http://www.w3.org/2000/svg">
<path d="M35.5612 16.0637L22.0613 29.5637C21.7798 29.8451 21.398 30.0033 21 30.0033C20.602 30.0033 20.2202 29.8451 19.9387 29.5637C19.6573 29.2822 19.4992 28.9005 19.4992 28.5024C19.4992 28.1044 19.6573 27.7226 19.9387 27.4412L30.8794 16.5024H1.5C1.10218 16.5024 0.720645 16.3444 0.43934 16.0631C0.158036 15.7818 0 15.4002 0 15.0024C0 14.6046 0.158036 14.2231 0.43934 13.9418C0.720645 13.6605 1.10218 13.5024 1.5 13.5024H16.1897H30.8794L19.9387 2.56367C19.6573 2.28221 19.4992 1.90047 19.4992 1.50242C19.4992 1.10437 19.6573 0.722632 19.9387 0.441171C20.2202 0.15971 20.602 0.00158691 21 0.00158691C21.398 0.00158691 21.7798 0.15971 22.0613 0.441171L35.5612 13.9412C35.7007 14.0805 35.8114 14.2459 35.8868 14.428C35.9623 14.6101 36.0012 14.8053 36.0012 15.0024C36.0012 15.1995 35.9623 15.3947 35.8868 15.5768C35.8114 15.7589 35.7007 15.9244 35.5612 16.0637Z" fill="#22C55E"/>
</svg>
